PathFileType	4	(X/Y/Z)	E:\Qualisys_Data\Carbon_Farble_Plate\Data\Amateur_Runner\S2\T2\S2T2V22_c3d.trc
DataRate	CameraRate	NumFrames	NumMarkers	Units	OrigDataRate	OrigDataStartFrame	OrigNumFrames
200.000000	200.000000	4	39	mm	200.000000	0	298
Frame#	Time	LSHO			RSHO			LICST			RICST			LASIS			LHEEL			RASIS			LTROC			RTROC			SACR			LTH1			LSK4			LTH2			LTH3			RHM5			LSK2			LTH4			RTH1			LTOE			RTH2			RTH3			RTH4			LLEP			RLEP			LSK1			LSK3			RSK1			LHM5			RSK2			LFT1			RSK3			RSK4			LLME			RLME			RTOE			RHEEL			RFT1			RFT2			LFT2			
		X1	Y1	Z1	X2	Y2	Z2	X3	Y3	Z3	X4	Y4	Z4	X5	Y5	Z5	X6	Y6	Z6	X7	Y7	Z7	X8	Y8	Z8	X9	Y9	Z9	X10	Y10	Z10	X11	Y11	Z11	X12	Y12	Z12	X13	Y13	Z13	X14	Y14	Z14	X15	Y15	Z15	X16	Y16	Z16	X17	Y17	Z17	X18	Y18	Z18	X19	Y19	Z19	X20	Y20	Z20	X21	Y21	Z21	X22	Y22	Z22	X23	Y23	Z23	X24	Y24	Z24	X25	Y25	Z25	X26	Y26	Z26	X27	Y27	Z27	X28	Y28	Z28	X29	Y29	Z29	X30	Y30	Z30	X31	Y31	Z31	X32	Y32	Z32	X33	Y33	Z33	X34	Y34	Z34	X35	Y35	Z35	X36	Y36	Z36	X37	Y37	Z37	X38	Y38	Z38	X39	Y39	Z39	

1	0	-3050.443115234375	1512.279418945312	-420.7581787109375	-3097.490966796875	1494.069091796875	-125.7171249389648	-3128.893798828125	1041.683715820312	-420.3790893554688	-3115.589111328125	1035.338134765625	-124.603889465332	-3079.98046875	986.468017578125	-410.1130676269531	-3694.38525390625	504.6884155273438	-307.5162353515625	-3059.1171875	987.88916015625	-156.3729553222656	-3231.794921875	943.1265869140625	-418.9026794433594	-3189.648193359375	931.0942993164062	-107.2945251464844	-3214.274658203125	1085.042114257812	-274.192626953125	-3206.37744140625	689.6389770507812	-432.1925964355469	-3547.35986328125	548.0943603515625	-394.5289611816406	-3282.8076171875	721.953125	-430.8936157226562	-3247.3466796875	596.136962890625	-419.1295166015625	-2727.929931640625	194.6719665527344	-148.90576171875	-3453.479248046875	574.6740112304688	-417.3277282714844	-3322.694091796875	631.3259887695312	-406.4273376464844	-2976.201904296875	697.8956298828125	-101.92529296875	-3772.9443359375	274.8399047851562	-344.6505432128906	-3050.54833984375	669.9475708007812	-96.64154052734375	-2946.616455078125	604.6444091796875	-133.8429412841797	-3024.712890625	579.980224609375	-128.6890411376953	-3317.076904296875	573.24755859375	-414.9740905761719	-2975.757568359375	561.16064453125	-131.8436126708984	-3431.5126953125	499.0522155761719	-419.9375915527344	-3528.146240234375	471.2066955566406	-407.6268615722656	-2900.965087890625	461.6544189453125	-138.0191802978516	-3788.431884765625	342.11669921875	-386.8128356933594	-2975.735595703125	439.1193542480469	-118.5992736816406	-3707.93896484375	500.0411682128906	-271.4347534179688	-2872.34130859375	364.1171569824219	-148.8586578369141	-2949.00146484375	344.1229858398438	-131.95849609375	-3703.94091796875	456.5410766601562	-369.221923828125	-2849.8720703125	172.0433349609375	-173.3504180908203	-2686.37744140625	255.8807830810547	-209.1157684326172	-2896.5390625	121.5503845214844	-229.0924682617188	-2870.515380859375	111.9289779663086	-261.2995300292969	-2876.27978515625	97.83186340332031	-205.3387908935547	-3722.932861328125	516.7614135742188	-322.7961730957031
2	0.005	-3028.724609375	1508.9169921875	-420.2127075195312	-3076.25390625	1490.089477539062	-124.8136520385742	-3108.746337890625	1039.44384765625	-421.0637512207031	-3095.65380859375	1032.782348632812	-124.8110046386719	-3059.37109375	983.8203735351562	-410.257568359375	-3666.28173828125	511.3663330078125	-305.2865905761719	-3040.020263671875	985.2086791992188	-156.2739105224609	-3211.041015625	940.4156494140624	-419.7464904785156	-3169.4267578125	928.3255004882812	-107.3568115234375	-3193.70263671875	1081.96240234375	-274.1835021972656	-3182.37841796875	685.4611206054688	-433.5147399902344	-3522.52783203125	548.17578125	-398.28369140625	-3258.829345703125	716.9619140625	-430.6125793457031	-3222.18310546875	592.2215576171875	-421.1410827636719	-2711.080810546875	190.1626281738281	-150.5023956298828	-3426.86279296875	573.7718505859375	-418.2953796386719	-3298.345458984375	627.0604248046875	-408.2754516601562	-2956.895263671875	693.7659301757812	-102.1053695678711	-3755.794677734375	285.0206298828125	-347.6990051269531	-3031.894775390625	664.229248046875	-94.54975128173828	-2928.49072265625	601.3472900390625	-135.9993591308594	-3006.153076171875	575.64306640625	-129.0153503417969	-3291.90380859375	568.3627319335938	-416.9918518066406	-2955.978759765625	557.834716796875	-133.3069000244141	-3407.755859375	497.5717163085938	-421.5731811523438	-3501.26904296875	471.9670104980469	-408.69921875	-2882.06494140625	458.5159912109375	-139.51171875	-3768.362548828125	353.5616455078125	-388.6539611816406	-2956.256591796875	435.0458679199219	-119.4660263061523	-3681.010009765625	508.3381042480469	-270.6720275878906	-2853.8369140625	360.7371520996094	-151.1493072509766	-2929.812255859375	340.5466003417969	-132.5889587402344	-3680.626708984375	464.7911682128906	-369.7274780273438	-2832.6201171875	167.6037750244141	-175.6220092773438	-2668.388916015625	251.5611114501953	-207.6853942871094	-2878.833984375	118.2136764526367	-232.85205078125	-2852.1533203125	108.4974899291992	-262.9154052734375	-2859.51904296875	93.82015991210938	-208.4559631347656	-3689.79345703125	521.2903442382812	-321.562744140625
3	0.01	-3006.95458984375	1506.100463867188	-419.6300964355469	-3054.443115234375	1486.081176757812	-123.3605194091797	-3087.72119140625	1036.6015625	-420.9582824707031	-3075.312744140625	1030.185668945312	-124.7238616943359	-3038.74267578125	981.3525390625	-410.52978515625	-3638.11181640625	518.0301513671875	-303.1639099121094	-3018.68115234375	982.1253662109376	-156.3961181640625	-3189.89794921875	937.3414306640624	-420.3420715332031	-3148.78369140625	925.159912109375	-107.7000732421875	-3173.23876953125	1079.227661132812	-274.3771667480469	-3158.109130859375	681.9498291015625	-435.132080078125	-3495.663330078125	549.7305908203125	-398.7217102050781	-3235.53955078125	712.3916015625	-431.9513549804688	-3196.47021484375	587.7613525390625	-422.5606689453125	-2696.121337890625	184.3982696533203	-151.0602416992188	-3400.012451171875	572.6234130859375	-419.9461364746094	-3272.5283203125	620.832763671875	-408.2277221679688	-2937.64453125	689.9969482421875	-102.6578979492188	-3735.64306640625	294.6975402832031	-350.0541687011719	-3012.19384765625	660.1828002929688	-95.04922485351562	-2907.5361328125	598.7276000976562	-138.2921600341797	-2984.875	572.093994140625	-130.0144500732422	-3266.2275390625	563.7068481445312	-419.211669921875	-2935.774169921875	555.0468139648438	-133.1930847167969	-3383.455322265625	495.8743591308594	-423.3934326171875	-3480.103271484375	473.678955078125	-409.5255126953125	-2862.451416015625	454.4742736816406	-139.9305725097656	-3746.706298828125	363.9198608398438	-390.2440185546875	-2938.33935546875	431.7622375488281	-120.9545059204102	-3663.567138671875	513.7916259765625	-275.0595703125	-2836.022705078125	356.3359680175781	-151.6670684814453	-2911.729248046875	337.7002258300781	-134.195068359375	-3656.2080078125	472.6812438964844	-370.1146240234375	-2817.52978515625	163.1029815673828	-177.2566986083984	-2651.62109375	245.0019378662109	-206.0325164794922	-2863.274169921875	114.3871307373047	-235.6304473876953	-2836.416259765625	105.3189315795898	-266.3693542480469	-2844.426513671875	90.21170043945312	-211.8876953125	-3672.21630859375	533.045166015625	-323.2471618652344
4	0.015	-2984.366455078125	1502.51953125	-419.099365234375	-3032.86181640625	1481.608154296875	-122.0512008666992	-3067.141357421875	1033.709838867188	-420.7523803710938	-3053.451904296875	1027.796264648438	-125.1371154785156	-3017.738037109375	978.1875	-409.9014892578125	-3609.808837890625	524.6656494140625	-301.2551879882812	-2998.47802734375	979.1802978515624	-156.5166778564453	-3168.951416015625	933.8095092773438	-420.84033203125	-3128.73291015625	922.591796875	-107.4917526245117	-3152.605224609375	1075.885131835938	-274.53955078125	-3134.1611328125	678.2300415039062	-436.8495788574219	-3469.632080078125	551.0415649414062	-399.8023071289062	-3211.93603515625	707.1453247070312	-433.1755065917969	-3170.614990234375	582.125732421875	-424.9623718261719	-2683.180908203125	177.3719635009766	-149.9514770507812	-3372.785400390625	570.7405395507812	-421.4297180175781	-3247.0205078125	614.7487182617188	-409.4220886230469	-2917.93212890625	686.8230590820312	-104.8247299194336	-3716.183349609375	304.6925964355469	-351.1885986328125	-2991.44580078125	656.9557495117188	-96.64083099365234	-2886.856201171875	596.050537109375	-140.8840179443359	-2964.66015625	569.1150512695312	-133.2772827148438	-3239.690185546875	557.525390625	-421.10986328125	-2914.55224609375	552.094482421875	-133.9523773193359	-3358.701171875	493.6646728515625	-425.088623046875	-3456.272705078125	475.0695190429688	-411.1548461914062	-2843.735107421875	449.9582214355469	-141.3897552490234	-3724.80224609375	374.1527404785156	-392.3040466308594	-2919.232421875	429.0026550292969	-122.613037109375	-3637.342529296875	521.1004028320312	-274.0440979003906	-2819.208740234375	351.1246643066406	-153.9830780029297	-2896.496337890625	333.3917236328125	-136.8892669677734	-3631.81005859375	479.6617431640625	-370.4466247558594	-2803.0322265625	158.8467102050781	-178.9768981933594	-2636.56103515625	238.7347106933594	-204.8073883056641	-2848.869384765625	110.1171340942383	-238.5214385986328	-2821.479248046875	101.4076232910156	-267.6527099609375	-2830.362548828125	86.0355453491211	-213.8927612304688	-3645.650390625	540.0112915039062	-323.577880859375
